<?xml version="1.0" standalone="no"?>
<!DOCTYPE svg PUBLIC "-//W3C//DTD SVG 20010904//EN"
 "http://www.w3.org/TR/2001/REC-SVG-20010904/DTD/svg10.dtd">
<svg version="1.0" xmlns="http://www.w3.org/2000/svg"
 width="700.000000pt" height="700.000000pt" viewBox="0 0 700.000000 700.000000"
 preserveAspectRatio="xMidYMid meet">
<metadata>
Created by potrace 1.11, written by Peter Selinger 2001-2013
</metadata>
<g transform="translate(0.000000,700.000000) scale(0.100000,-0.100000)"
fill="#000000" stroke="none">
<path d="M5035 6359 c-33 -28 -71 -61 -85 -73 -14 -11 -99 -84 -190 -161 -91
-76 -176 -149 -190 -162 -167 -148 -314 -263 -345 -269 -49 -9 -92 1 -126 30
-34 29 -159 176 -330 387 -67 82 -124 149 -129 149 -4 0 -11 -12 -14 -27 -4
-16 -22 -75 -40 -133 -43 -134 -122 -384 -187 -592 -27 -90 -56 -181 -64 -203
-7 -22 -36 -112 -63 -200 -188 -600 -212 -675 -228 -711 -17 -40 -61 -83 -91
-90 -35 -9 -96 1 -126 21 -19 12 -45 63 -102 198 -42 100 -82 196 -90 212 -7
17 -43 102 -80 190 -37 88 -69 163 -72 168 -2 4 -58 -101 -124 -234 -141 -283
-160 -315 -203 -328 -34 -11 -88 -6 -123 13 -13 6 -146 134 -297 285 -215 214
-275 269 -280 254 -3 -10 -10 -56 -16 -103 -6 -47 -13 -96 -16 -110 -2 -14
-13 -88 -24 -165 -12 -77 -25 -165 -30 -195 -5 -30 -11 -71 -14 -90 -8 -58
-28 -194 -31 -210 -2 -8 -4 -22 -4 -30 -1 -20 -39 -63 -71 -81 -19 -10 -81
-14 -260 -15 -129 -1 -241 -3 -248 -3 -9 -1 -1 -18 21 -48 19 -27 137 -201
262 -388 126 -187 261 -387 300 -445 275 -403 288 -425 273 -498 -11 -49 -28
-64 -276 -251 -83 -63 -150 -116 -148 -118 1 -1 85 -25 187 -53 101 -27 326
-89 499 -136 173 -47 322 -88 330 -89 8 -2 92 -25 185 -51 l170 -47 -100 -96
c-55 -54 -118 -113 -139 -132 -22 -18 -47 -41 -55 -49 -15 -14 -147 -122 -194
-160 -11 -8 -24 -20 -31 -25 -6 -6 -38 -31 -71 -55 -33 -25 -64 -48 -70 -53
-102 -78 -261 -183 -464 -307 -184 -112 -203 -127 -231 -185 -64 -132 26 -294
170 -308 91 -9 130 14 486 279 368 274 658 545 970 906 27 31 53 57 57 57 9 1
110 -59 577 -340 173 -105 353 -213 400 -240 47 -28 150 -90 230 -138 80 -49
146 -88 147 -87 1 1 3 108 3 239 1 226 2 237 23 269 30 45 78 65 167 73 41 3
91 8 110 10 19 2 67 7 105 10 115 10 167 14 229 21 32 3 77 7 100 9 49 3 187
15 236 20 19 2 69 7 110 10 41 3 91 8 110 10 19 2 71 7 115 11 44 4 94 8 110
10 17 1 66 6 110 10 44 3 91 8 105 9 14 2 44 3 68 4 23 1 42 5 42 10 0 5 -48
47 -107 92 -145 112 -259 213 -294 262 -33 45 -38 100 -15 145 16 32 16 31
496 467 91 83 178 162 195 177 16 16 25 28 20 28 -6 0 -65 11 -131 25 -67 13
-136 27 -155 30 -19 3 -41 8 -49 10 -8 2 -29 7 -46 10 -17 2 -96 18 -175 34
-79 17 -159 32 -177 35 -37 5 -78 29 -104 60 -34 43 -32 79 17 229 26 78 51
151 56 162 29 64 48 142 32 132 -8 -5 -197 -46 -238 -52 -17 -3 -67 -12 -150
-29 -11 -2 -78 -17 -150 -32 -164 -34 -214 -36 -252 -8 -69 52 -83 131 -37
210 15 27 31 51 34 54 4 3 62 79 130 170 67 91 133 179 145 195 13 17 109 145
214 285 104 140 193 260 198 265 4 6 60 80 123 165 63 85 117 157 120 160 10
10 126 166 142 192 l18 28 -304 0 c-168 0 -316 4 -329 9 -36 14 -74 59 -84
100 -5 20 -9 264 -9 544 1 279 -1 507 -4 507 -3 0 -32 -23 -65 -51z"/>
</g>
</svg>
